<?xml version="1.0" encoding="UTF-8" standalone="no"?>
<!-- Created with Inkscape (http://www.inkscape.org/) -->

<svg
   width="512"
   height="512"
   viewBox="0 0 512 512"
   version="1.1"
   id="svg1"
   xml:space="preserve"
   xmlns="http://www.w3.org/2000/svg"
   xmlns:svg="http://www.w3.org/2000/svg"><defs
     id="defs1" /><g
     id="layer1"><path
       id="path1"
       style="fill:#000014;fill-opacity:1;stroke:none;stroke-width:16;stroke-linecap:round;stroke-linejoin:round;stroke-dasharray:none;paint-order:stroke markers fill"
       d="m 229.68451,22.774593 c -6.37305,0 -12.74746,1.472413 -18.87535,3.68075 L 30.404059,101.29193 C 5.4020667,111.59757 -6.6074786,140.30692 3.6874496,165.08955 L 125.26494,458.30901 c 7.59861,18.89372 25.4912,30.42568 44.36521,30.9164 6.37305,0 12.99303,-1.22394 19.36606,-3.92305 l 180.65044,-74.8399 c 18.38376,-7.60653 29.65797,-25.76597 30.14818,-43.9235 0.24521,-6.3797 -0.98019,-13.49446 -3.18622,-19.87411 L 274.04971,53.445345 c -7.10839,-18.89363 -25.24604,-30.425386 -44.3652,-30.670752 z m 85.30217,0 84.5628,204.638947 V 71.849159 A 49.0235,49.074531 0 0 0 350.52593,22.774593 Z M 448.8184,60.561265 V 282.13374 L 508.38204,138.34512 C 518.43188,113.31714 506.91249,84.607543 481.66543,74.30189 Z M 256.03639,172.78629 239.70737,229.64723 221.92946,187.0513 Z m -64.63642,27.03649 43.94085,105.27836 -64.47398,26.96679 c 6.71186,-3.84884 12.39656,-8.6484 17.04187,-14.41105 6.48431,-7.96387 10.43848,-16.93001 11.86964,-26.89046 1.48741,-10.09819 0.064,-20.34676 -4.27704,-30.74713 -4.34113,-10.40035 -10.62338,-18.61662 -18.84553,-24.65345 -8.12545,-6.0776 -17.29887,-9.60591 -27.51566,-10.58425 -7.35997,-0.74121 -14.76538,-0.0676 -22.21741,2.00798 z m 56.6924,49.90766 51.88817,28.33421 -34.10693,14.26501 z m -107.47649,6.27287 c 3.33155,-0.0808 6.60568,0.52102 9.82062,1.80222 6.4299,2.56231 11.20244,7.58712 14.32645,15.07154 2.10966,5.05427 2.89169,9.92235 2.33745,14.60687 -0.59446,4.58708 -2.31133,8.67251 -5.14902,12.25702 -2.78125,3.44652 -6.40518,6.10733 -10.87167,7.97553 -4.56361,1.90882 -9.09925,2.66031 -13.60033,2.26025 -4.54163,-0.498 -8.64591,-2.14858 -12.32386,-4.94863 -3.71832,-2.89746 -6.63689,-6.87411 -8.7464,-11.92845 -3.12414,-7.48434 -3.33397,-14.41681 -0.63657,-20.79679 2.79434,-6.42066 7.68346,-11.09192 14.67456,-14.01608 3.44699,-1.44176 6.83718,-2.20274 10.16877,-2.28348 z" /></g></svg>
