<?xml version="1.0" standalone="no"?>
<!DOCTYPE svg PUBLIC "-//W3C//DTD SVG 20010904//EN"
 "http://www.w3.org/TR/2001/REC-SVG-20010904/DTD/svg10.dtd">
<svg version="1.0" xmlns="http://www.w3.org/2000/svg"
 width="700.000000pt" height="700.000000pt" viewBox="0 0 700.000000 700.000000"
 preserveAspectRatio="xMidYMid meet">
<metadata>
Created by potrace 1.14, written by Peter Selinger 2001-2017
</metadata>
<g transform="translate(0.000000,700.000000) scale(0.100000,-0.100000)"
fill="#000000" stroke="none">
<path d="M2986 6668 c-42 -9 -118 -35 -168 -56 -51 -22 -145 -61 -208 -87 -63
-26 -128 -53 -145 -60 -16 -7 -109 -45 -205 -85 -96 -39 -188 -78 -205 -85
-16 -7 -70 -30 -120 -50 -49 -20 -103 -43 -120 -50 -16 -7 -70 -29 -120 -50
-49 -20 -103 -43 -120 -50 -16 -7 -50 -20 -75 -30 -25 -10 -64 -27 -87 -37
-23 -10 -44 -18 -48 -18 -3 0 -24 -9 -48 -19 -23 -11 -60 -27 -82 -36 -485
-199 -872 -364 -916 -390 -134 -82 -236 -213 -290 -375 -27 -81 -34 -248 -13
-337 11 -50 66 -195 104 -278 5 -11 66 -157 135 -325 69 -168 136 -330 149
-360 13 -30 61 -145 106 -255 45 -110 88 -213 95 -230 7 -16 56 -133 108 -260
109 -265 388 -938 417 -1005 28 -67 105 -252 230 -555 61 -148 126 -306 145
-350 18 -44 72 -174 120 -289 110 -268 121 -291 166 -352 161 -220 425 -323
682 -265 56 13 89 27 992 401 374 155 887 367 1140 472 509 210 548 229 623
294 213 187 292 485 198 750 -7 21 -55 138 -105 259 -51 121 -108 258 -128
305 -19 47 -41 99 -49 115 -7 17 -65 156 -130 310 -64 154 -167 402 -229 550
-560 1343 -556 1333 -586 1400 -5 11 -113 270 -240 575 -127 305 -242 576
-256 602 -58 107 -193 225 -313 274 -133 54 -267 65 -404 32z m507 -2050 c-6
-26 -123 -439 -153 -538 -10 -36 -29 -99 -41 -140 l-22 -75 -13 30 c-8 17 -40
93 -72 170 -33 77 -80 190 -105 251 -26 62 -47 116 -47 121 0 5 37 24 83 43
45 18 105 43 132 55 28 12 60 26 73 29 13 4 56 23 95 41 40 19 73 34 74 34 0
1 -1 -9 -4 -21z m-823 -482 c0 -7 4 -16 8 -21 5 -6 21 -41 37 -80 15 -38 34
-83 41 -100 72 -166 454 -1091 454 -1099 0 -10 -106 -56 -570 -249 -110 -45
-138 -57 -203 -87 -27 -12 -51 -20 -53 -18 -2 3 19 22 47 43 157 119 266 296
297 480 8 52 8 199 0 250 -9 53 -38 157 -47 170 -4 6 -16 30 -25 54 -26 67
-97 170 -157 228 -170 164 -338 227 -582 219 -65 -2 -117 -3 -115 -1 2 1 44
19 93 40 50 21 108 46 130 55 22 10 108 46 190 80 83 34 169 70 192 81 24 10
45 19 48 19 2 0 28 10 57 23 113 50 100 52 131 -16 15 -33 27 -65 27 -71z
m-880 -220 c0 -2 -7 -7 -16 -10 -8 -3 -12 -2 -9 4 6 10 25 14 25 6z m1785
-430 c33 -18 94 -51 135 -74 41 -22 107 -58 145 -79 197 -107 235 -128 235
-134 0 -6 -434 -189 -449 -189 -4 0 -21 30 -36 68 -15 37 -36 85 -46 107 -9
22 -40 96 -68 165 -28 69 -60 144 -71 168 -11 23 -20 47 -20 53 0 6 26 -4 58
-21 31 -18 84 -47 117 -64z m-1504 -19 c174 -85 263 -322 185 -492 -108 -236
-446 -285 -602 -87 -124 159 -126 362 -4 490 109 113 292 152 421 89z"/>
<path d="M4310 6686 c0 -5 115 -287 335 -816 51 -124 141 -342 200 -485 59
-143 113 -273 120 -290 7 -16 49 -118 93 -225 45 -107 115 -278 158 -380 42
-102 85 -207 96 -235 10 -27 27 -68 37 -90 10 -22 37 -88 61 -147 24 -59 46
-105 49 -103 2 3 4 492 4 1088 -1 1214 2 1158 -74 1315 -56 116 -178 239 -289
294 -135 67 -162 71 -492 76 -164 2 -298 1 -298 -2z"/>
<path d="M6139 6157 c-4 -44 -3 -2997 1 -2997 3 0 45 98 94 218 76 186 102
250 156 377 4 11 15 36 24 57 9 20 16 39 16 42 0 3 14 35 30 71 17 36 30 68
30 72 0 4 8 25 19 47 10 23 28 66 40 96 12 30 26 64 31 75 11 23 100 240 136
330 13 33 31 74 39 90 31 66 199 484 217 540 25 79 31 237 12 330 -21 103 -91
238 -161 311 -106 110 -122 120 -418 245 -252 106 -265 111 -266 96z"/>
</g>
</svg>
