<?xml version="1.0" encoding="UTF-8" standalone="no"?>
<!-- Created with Inkscape (http://www.inkscape.org/) -->

<svg
   width="100.99902"
   height="160.99904"
   viewBox="0 0 26.722657 42.597663"
   version="1.1"
   id="svg1"
   xml:space="preserve"
   xmlns="http://www.w3.org/2000/svg"
   xmlns:svg="http://www.w3.org/2000/svg"><defs
     id="defs1" /><g
     id="layer1"
     transform="translate(-35.466796,-60.888671)"><path
       style="color:#000000;fill:#000000;fill-rule:evenodd;stroke-linecap:round;stroke-linejoin:round;-inkscape-stroke:none;paint-order:stroke markers fill"
       d="m 35.599609,60.888672 a 0.13230472,0.13230472 0 0 0 -0.132812,0.132812 v 42.332036 a 0.13230472,0.13230472 0 0 0 0.132812,0.13281 h 26.458985 a 0.13230472,0.13230472 0 0 0 0.130859,-0.13281 V 61.021484 a 0.13230472,0.13230472 0 0 0 -0.130859,-0.132812 z m 0.132813,0.263672 H 61.925781 V 103.22266 H 35.732422 Z"
       id="path3" /><path
       style="color:#000000;fill:#ffffff;fill-rule:evenodd;stroke-linecap:round;stroke-linejoin:round;-inkscape-stroke:none;paint-order:stroke markers fill"
       d="M 35.599609,61.020832 H 62.057945 V 103.35416 H 35.599609 Z"
       id="path4" /><path
       d="m 54.190908,87.614679 c -0.483927,0.12959 -1.000311,0.171258 -1.47029,0.331529 0.796004,-0.682511 0.750563,-1.73857 1.281641,-2.542424 0.169175,-0.227599 0.309006,-0.466163 0.506208,-0.682138 -0.323042,0.648013 -0.182947,1.488755 -0.554061,2.117601 -0.142858,0.249793 -0.347166,0.492129 -0.573098,0.688322 0.07382,-0.0028 0.138427,-0.06667 0.203343,-0.109347 0.602792,-0.60152 1.390286,-0.769729 2.042335,-1.258437 0.261196,-0.208124 0.500418,-0.480857 0.615248,-0.775827 -0.123383,0.997987 -1.116237,1.933382 -2.051326,2.230721 z"
       id="path3084"
       style="fill:#000000;stroke-width:0.264583" /><path
       d="m 56.362503,83.574003 c -0.294926,0.419669 -0.651697,0.810346 -0.924167,1.236857 0.0304,-0.337691 0.0704,-0.75293 -0.06114,-1.072814 -0.227949,-0.688849 -0.428222,-1.388268 -0.49283,-2.144269 l 0.0089,-0.289093 c 0.171543,0.772054 0.929957,1.302782 0.882104,2.168788 0.01737,0.209879 -0.04755,0.388308 -0.08685,0.572878 l 0.01303,0.01364 0.03417,-0.03829 c 0.112461,-0.424801 0.169218,-0.871489 0.344095,-1.267824 0.248521,-0.570334 0.558843,-1.145932 0.432389,-1.834561 0.378001,0.811881 0.263478,1.896626 -0.1497,2.654688 z"
       id="path3086"
       style="fill:#000000;stroke-width:0.264583" /><path
       d="m 55.896998,79.19989 c 0.497305,0.673958 0.606302,1.747979 0.244091,2.521042 -0.135007,0.327603 -0.230362,0.676699 -0.283391,1.039304 -0.02531,-0.06255 -0.0311,-0.14663 -0.05369,-0.216326 -0.197817,-0.756703 -0.913465,-1.295983 -1.207777,-2.009416 -0.09334,-0.233301 -0.172903,-0.474365 -0.217028,-0.727623 0.314488,0.581651 1.089525,0.882082 1.300763,1.523077 0.08654,0.162113 0.08167,0.364667 0.135358,0.538974 0.01127,0 0.02255,-0.0084 0.02255,-0.01983 -0.09299,-0.660295 -0.06461,-1.351358 0.025,-2.003451 -0.0052,-0.353219 -0.03965,-0.695845 -0.235888,-0.969257 0.125839,0.07331 0.182508,0.214133 0.270012,0.323502 z"
       id="path3088"
       style="fill:#000000;stroke-width:0.264583" /><path
       d="m 55.546368,79.07052 c 0.13062,0.590577 -0.06018,1.165736 0.05983,1.761992 l -0.0045,0.0051 c -0.321287,-0.631785 -1.003381,-0.929957 -1.472702,-1.435617 -0.271986,-0.300058 -0.390238,-0.665755 -0.458267,-1.052967 0.268916,0.64832 0.994565,0.791178 1.411163,1.337498 0.139393,0.125949 0.184878,0.300432 0.274751,0.443267 l 0.01469,-0.01419 c -0.239573,-0.511428 -0.31984,-1.086982 -0.486996,-1.632425 -0.08369,-0.236349 -0.249793,-0.468575 -0.472655,-0.617595 0.546868,0.11176 1.020838,0.682686 1.13466,1.204904 z"
       id="path3090"
       style="fill:#000000;stroke-width:0.264583" /><path
       d="m 54.08428,77.716091 c 0.411862,0.368614 0.598143,0.845896 0.718412,1.340415 l 0.06803,0.157047 C 54.27293,78.783621 53.729878,78.205676 53.348149,77.595296 l -0.466206,-0.471645 c 0.409844,0.17378 0.851707,0.277513 1.202337,0.59244 z"
       id="path3092"
       style="fill:#000000;stroke-width:0.264583" /><path
       d="m 44.642995,77.201922 c -0.413221,0.362254 -0.699814,0.82039 -1.006364,1.247603 -0.274794,0.340236 -0.626302,0.564589 -0.937808,0.857169 0.168166,-0.348614 0.174307,-0.765037 0.412827,-1.085271 0.339402,-0.592134 0.968774,-0.800456 1.531345,-1.019501 z"
       id="path3094"
       style="fill:#000000;stroke-width:0.264583" /><path
       d="m 42.383194,78.463386 c 0.200975,-0.249837 0.455767,-0.423464 0.742492,-0.496778 -0.556738,0.382452 -0.520508,1.067836 -0.697008,1.6376 -0.05627,0.21069 -0.153998,0.4048 -0.202684,0.620775 l 0.01417,0.01127 c 0.09264,-0.244157 0.255451,-0.474847 0.458662,-0.674068 0.395414,-0.365017 0.980354,-0.592506 1.174135,-1.132466 -0.0089,0.750343 -0.634811,1.34024 -1.233743,1.761948 -0.246986,0.216677 -0.485155,0.463619 -0.62117,0.742163 -0.01333,-0.189307 0.02798,-0.379382 0.01452,-0.582177 -0.06514,-0.65501 -0.112461,-1.402633 0.350631,-1.88827 z"
       id="path3096"
       style="fill:#000000;stroke-width:0.264583" /><path
       d="m 41.256737,80.703164 c -0.01676,-0.66376 0.25874,-1.205584 0.64696,-1.700147 0.01127,-0.0056 0.0193,-0.01691 0.03382,-0.01419 -0.427345,0.649396 -0.07382,1.467373 -0.09329,2.205764 l -0.05636,0.756001 c 0.0084,0.0055 0.0084,0.0282 0.0282,0.01947 0.02527,-0.08426 0.03075,-0.174307 0.04763,-0.260978 0.100663,-0.609809 0.63025,-1.042506 1.092816,-1.46393 0.09878,-0.110224 0.186105,-0.222137 0.236853,-0.351485 -0.03777,0.303632 -0.132945,0.609875 -0.258915,0.890678 -0.360018,0.702095 -1.025094,1.278175 -1.146591,2.081986 -0.05895,-0.7703 -0.583405,-1.346205 -0.531121,-2.163174 z"
       id="path3098"
       style="fill:#000000;stroke-width:0.264583" /><path
       d="m 40.933432,81.647069 c 0.04785,-0.207598 0.08443,-0.422433 0.174789,-0.612924 -0.171193,0.877498 0.419011,1.509765 0.612617,2.270372 0.08101,0.284487 0.100838,0.590028 0.216677,0.856971 0.01079,0.0058 0.02018,-0.0054 0.02684,-0.01399 -0.288259,-0.807977 0.127857,-1.558802 0.545991,-2.19142 0.101671,-0.171412 0.160271,-0.362298 0.210844,-0.559325 0.04443,0.365675 -0.04803,0.786792 -0.101145,1.166459 -0.101672,0.483093 -0.253434,0.941229 -0.385545,1.40998 -0.08693,0.292909 -0.06408,0.623363 -0.01943,0.930264 l -0.04189,-0.03347 c -0.30655,-0.56529 -0.913553,-1.006188 -1.093824,-1.623762 -0.148341,-0.492348 -0.246942,-1.062682 -0.145928,-1.599155 z"
       id="path3100"
       style="fill:#000000;stroke-width:0.264583" /><path
       d="m 40.905755,83.360923 c 0.0675,0.930088 1.067682,1.421559 1.531301,2.191552 0.109698,0.157552 0.204878,0.331858 0.351464,0.46375 -0.02289,-0.09908 -0.115356,-0.182465 -0.149305,-0.283961 -0.162201,-0.322954 -0.221326,-0.707797 -0.182333,-1.098123 0.04491,-0.475066 0.244178,-0.91592 0.168122,-1.415593 0.407388,0.878375 0.283654,1.974743 0.511428,2.926543 0.05965,0.208168 0.18014,0.394054 0.259091,0.593011 -0.837014,-0.570071 -1.97834,-1.112466 -2.349674,-2.157252 -0.156499,-0.360237 -0.173955,-0.806223 -0.140094,-1.219927 z"
       id="path3102"
       style="fill:#000000;stroke-width:0.264583" /><path
       d="m 41.405735,85.496771 c 0.466689,1.055752 1.635516,1.143212 2.419195,1.786094 0.144217,0.127813 0.295321,0.236502 0.458135,0.312339 l 0.0084,-0.0085 C 44.111544,87.424021 43.90342,87.238749 43.777449,87.027905 43.318787,86.390156 43.48011,85.49678 43.136454,84.810869 c 0.312251,0.373527 0.596212,0.761791 0.78473,1.18554 0.280408,0.691743 0.387563,1.473053 1.036409,1.995951 -0.702182,-0.231415 -1.524809,-0.166763 -2.144576,-0.59913 -0.676699,-0.415897 -1.280631,-1.121326 -1.40726,-1.89645 z"
       id="path3104"
       style="fill:#000000;stroke-width:0.264583" /><path
       d="m 42.605178,87.466338 c 0.748282,0.851028 1.970972,0.567067 2.96773,0.789797 0.140796,0.01921 0.269662,0.07562 0.41888,0.05272 -0.118822,-0.07518 -0.283698,-0.06702 -0.413397,-0.135357 -0.78131,-0.274487 -0.89592,-1.120339 -1.320064,-1.690717 0.541868,0.359841 0.997417,0.845172 1.497309,1.315435 0.359316,0.314752 0.791836,0.460023 1.24756,0.552659 -0.109523,0.04 -0.253082,0.02904 -0.370632,0.05983 -0.818724,0.201325 -1.728328,0.530376 -2.596572,0.235801 -0.564457,-0.177728 -1.146809,-0.624065 -1.430814,-1.180168 z"
       id="path3106"
       style="fill:#000000;stroke-width:0.264583" /><path
       d="m 52.761322,89.450052 c -0.843198,0.314664 -1.723196,-0.01439 -2.381781,-0.513797 -0.266635,-0.169482 -0.50169,-0.413528 -0.846575,-0.391948 -0.125094,-0.0024 -0.245714,0.0038 -0.352035,0.03448 0.639812,0.297733 1.234139,0.708192 1.777542,1.233129 -0.09158,0.104567 -0.210186,0.202378 -0.321902,0.292558 -0.523665,-0.564237 -1.103605,-1.107334 -1.752934,-1.424542 -0.127155,0.01649 -0.248126,0.09299 -0.362781,0.154569 -0.528622,0.334226 -1.051322,0.76416 -1.444324,1.290501 l -0.337691,-0.278874 c 0.538973,-0.545201 1.135142,-0.969608 1.787323,-1.27278 -0.640865,-0.202992 -1.059174,0.333876 -1.545645,0.606959 -0.566869,0.395809 -1.382127,0.581695 -2.067204,0.308611 -0.368439,-0.139743 -0.725386,-0.345542 -0.992153,-0.680032 0.539149,0.371421 1.342126,0.41037 1.955269,0.169131 0.822759,-0.356859 1.677712,-0.80925 2.669558,-0.592923 0.154788,0.0027 0.30519,0.156849 0.451425,0.02562 0.737184,-0.191413 1.571786,-0.05983 2.206465,0.277118 l 0.654154,0.262206 c 0.608012,0.224835 1.394102,0.162639 1.915267,-0.207817 -0.267951,0.333525 -0.633977,0.572483 -1.011978,0.707841 z"
       id="path3108"
       style="fill:#000000;stroke-width:0.264583" /><path
       d="m 53.664918,88.578782 c -0.946712,0.357473 -1.899126,-0.08132 -2.806231,-0.227905 l -0.174657,-0.02219 v -0.0055 c 0.433749,-0.09843 0.854777,-0.227555 1.200013,-0.539237 0.508489,-0.488773 0.960967,-0.991867 1.525644,-1.377017 -0.418748,0.536911 -0.463137,1.301137 -1.15488,1.646329 -0.171193,0.112023 -0.387256,0.131848 -0.563931,0.216676 0.251942,0.0054 0.482611,-0.08483 0.732097,-0.110092 0.927588,-0.145622 1.988735,0.0038 2.639468,-0.78642 -0.241591,0.550619 -0.846619,1.011694 -1.397523,1.205387 z"
       id="path3110"
       style="fill:#000000;stroke-width:0.264583" /><path
       d="m 55.385044,85.91508 c -0.373877,0.244705 -0.752843,0.471645 -1.112115,0.749861 v -0.03417 c 0.55029,-0.914561 0.281286,-2.170937 0.620337,-3.177433 l 0.126454,-0.337165 c -0.07075,0.627004 0.201588,1.158126 0.182465,1.787279 -0.01912,0.380062 -0.143165,0.717052 -0.342736,1.020531 h 0.03382 c 0.269619,-0.354096 0.480155,-0.730693 0.795257,-1.06799 0.489103,-0.471645 0.986364,-0.955265 1.050577,-1.60977 0.166105,1.09264 -0.446995,2.050274 -1.354056,2.668856 z"
       id="path3112"
       style="fill:#000000;stroke-width:0.264583" /><path
       id="path5411"
       style="fill:#000000;stroke:none;stroke-width:0.543392px;stroke-linecap:butt;stroke-linejoin:miter;stroke-opacity:1"
       d="m 54.578075,82.711703 -1.260564,-0.538351 -1.037334,-0.895089 0.09792,-1.359389 -3.549367,2.792829 3.549367,2.792829 -0.09792,-1.359389 1.037334,-0.895089 z m -5.749343,0 -2.791749,3.558555 1.366417,-0.100626 0.89671,1.035893 0.521145,1.69e-4 h 0.0076 0.0075 l 0.521145,-1.69e-4 0.89671,-1.035893 1.366417,0.100626 z m 0,0 -3.549277,-2.792829 0.09792,1.359389 -1.037334,0.895089 -1.260566,0.538351 1.260566,0.538351 1.037334,0.895089 -0.09792,1.359389 z m 0,0 2.791839,-3.558556 -1.366417,0.100626 -0.896711,-1.035893 -0.521144,-1.7e-4 h -0.0075 -0.0076 l -0.521144,1.7e-4 -0.896711,1.035893 -1.366416,-0.100626 z" /><path
       style="color:#000000;fill:#000000;-inkscape-stroke:none"
       d="m 40.890625,66.179687 v 0.265625 h 15.875 v -0.265625 z"
       id="path84" /><path
       style="color:#000000;fill:#000000;-inkscape-stroke:none"
       d="m 46.84375,69.488281 v 0.263672 h 3.96875 v -0.263672 z"
       id="path87" /><path
       style="color:#000000;fill:#000000;-inkscape-stroke:none"
       d="m 40.890625,69.488281 v 0.263672 h 3.96875 v -0.263672 z"
       id="path88" /><path
       style="color:#000000;fill:#000000;-inkscape-stroke:none"
       d="m 52.796875,69.488281 v 0.263672 h 3.96875 v -0.263672 z"
       id="path89" /><path
       style="color:#000000;fill:#000000;fill-rule:evenodd;stroke-linecap:round;stroke-linejoin:round;-inkscape-stroke:none;paint-order:stroke markers fill"
       d="m 35.599609,60.888672 a 0.13230472,0.13230472 0 0 0 -0.132812,0.132812 v 42.332036 a 0.13230472,0.13230472 0 0 0 0.132812,0.13281 h 2.646485 a 0.13230472,0.13230472 0 0 0 0.130859,-0.13281 V 61.021484 a 0.13230472,0.13230472 0 0 0 -0.130859,-0.132812 z m 0.132813,0.263672 h 2.380859 v 42.070316 h -2.380859 z"
       id="path5" /><path
       style="color:#000000;fill:#cccccc;fill-rule:evenodd;stroke-linecap:round;stroke-linejoin:round;-inkscape-stroke:none;paint-order:stroke markers fill"
       d="m 35.599609,61.020832 h 2.645834 v 42.333328 h -2.645834 z"
       id="path6" /><path
       style="color:#000000;fill:#000000;fill-rule:evenodd;stroke-linecap:round;stroke-linejoin:round;-inkscape-stroke:none;paint-order:stroke markers fill"
       d="m 59.412109,60.888672 a 0.13230472,0.13230472 0 0 0 -0.132812,0.132812 v 42.332036 a 0.13230472,0.13230472 0 0 0 0.132812,0.13281 h 2.646485 a 0.13230472,0.13230472 0 0 0 0.130859,-0.13281 V 61.021484 a 0.13230472,0.13230472 0 0 0 -0.130859,-0.132812 z m 0.132813,0.263672 h 2.380859 v 42.070316 h -2.380859 z"
       id="path7" /><path
       style="color:#000000;fill:#cccccc;fill-rule:evenodd;stroke-linecap:round;stroke-linejoin:round;-inkscape-stroke:none;paint-order:stroke markers fill"
       d="m 59.412109,61.020832 h 2.645834 v 42.333328 h -2.645834 z"
       id="path8" /><path
       style="font-size:0.999592px;line-height:1.25;font-family:'Flow Block';-inkscape-font-specification:'Flow Block, Normal';text-align:center;text-anchor:middle;fill:#4d4d4d;stroke-width:0.264583"
       d="m 41.552745,65.41614 h 0.66173 v 0.299878 h -0.66173 z m 0.571767,0 h 0.375847 v 0.299878 h -0.375847 z m 0.285883,0 h 0.66173 v 0.299878 h -0.66173 z m 0.571767,0 h 0.66173 v 0.299878 h -0.66173 z m 1.171523,0 h 0.66173 v 0.299878 h -0.66173 z m 0.571767,0 h 0.375846 v 0.299878 h -0.375846 z m 0.285883,0 h 0.375846 v 0.299878 h -0.375846 z m 0.285882,0 h 0.375847 v 0.299878 h -0.375847 z m 0.285882,0 h 0.66173 v 0.299878 h -0.66173 z m 1.171524,0 h 0.661729 v 0.299878 h -0.661729 z m 0.571766,0 h 0.66173 v 0.299878 h -0.66173 z m 0.571768,0 h 0.66173 v 0.299878 h -0.66173 z m 1.171522,0 h 0.375847 v 0.299878 h -0.375847 z m 0.285883,0 h 0.66173 v 0.299878 h -0.66173 z m 0.571767,0 h 0.66173 v 0.299878 h -0.66173 z m 0.571767,0 h 0.66173 v 0.299878 h -0.66173 z m 0.571768,0 h 0.66173 v 0.299878 h -0.66173 z m 0.571767,0 h 0.66173 v 0.299878 h -0.66173 z m 0.571767,0 h 0.661729 v 0.299878 h -0.661729 z m 1.171523,0 h 0.66173 v 0.299878 h -0.66173 z m 1.771278,0 h 0.375847 v 0.299878 h -0.375847 z m 0.285883,0 h 0.375847 v 0.299878 h -0.375847 z m 0.285882,0 h 0.375847 v 0.299878 h -0.375847 z"
       id="text90"
       aria-label="aLAN bILLY bOB jOHNSON 1  iii" /><path
       style="font-size:0.999592px;line-height:1.25;font-family:'Flow Block';-inkscape-font-specification:'Flow Block, Normal';text-align:center;text-anchor:middle;fill:#4d4d4d;stroke-width:0.264583"
       d="m 42.258904,68.658457 h 0.661729 v 0.299878 h -0.661729 z m 0.571767,0 h 0.66173 v 0.299878 h -0.66173 z"
       id="text1"
       aria-label="25" /><path
       style="font-size:0.999592px;line-height:1.25;font-family:'Flow Block';-inkscape-font-specification:'Flow Block, Normal';text-align:center;text-anchor:middle;fill:#4d4d4d;stroke-width:0.264583"
       d="m 46.740629,68.658457 h 0.66173 v 0.299878 h -0.66173 z m 1.171523,0 h 0.375846 v 0.299878 h -0.375846 z m 0.885638,0 h 0.66173 v 0.299878 h -0.66173 z m 0.571767,0 h 0.66173 v 0.299878 h -0.66173 z m 1.171523,0 h 0.375846 v 0.299878 H 50.54108 Z"
       id="text2"
       aria-label="2 &quot; 10 ' " /><path
       style="font-size:0.999592px;line-height:1.25;font-family:'Flow Block';-inkscape-font-specification:'Flow Block, Normal';text-align:center;text-anchor:middle;fill:#4d4d4d;stroke-width:0.264583"
       d="m 52.864684,68.658457 h 0.66173 v 0.299878 h -0.66173 z m 0.571767,0 h 0.66173 v 0.299878 h -0.66173 z m 0.571767,0 h 0.66173 v 0.299878 h -0.66173 z m 1.171523,0 h 0.375846 v 0.299878 h -0.375846 z m 0.285882,0 h 0.66173 v 0.299878 h -0.66173 z m 0.571768,0 h 0.661729 v 0.299878 h -0.661729 z"
       id="text3"
       aria-label="903 LBS" /></g></svg>
