<?xml version="1.0" encoding="UTF-8" standalone="no"?>
<!-- Created with Inkscape (http://www.inkscape.org/) -->

<svg
   width="511.99997"
   height="506.42078"
   viewBox="0 0 135.46665 133.9905"
   version="1.1"
   id="svg1"
   xml:space="preserve"
   xmlns:xlink="http://www.w3.org/1999/xlink"
   xmlns="http://www.w3.org/2000/svg"
   xmlns:svg="http://www.w3.org/2000/svg"><defs
     id="defs1"><linearGradient
       id="linearGradient3"><stop
         style="stop-color:#000000;stop-opacity:1;"
         offset="0"
         id="stop3" /><stop
         style="stop-color:#000000;stop-opacity:0;"
         offset="1"
         id="stop4" /></linearGradient><linearGradient
       xlink:href="#linearGradient3"
       id="linearGradient4"
       x1="67.733322"
       y1="73.366966"
       x2="67.733322"
       y2="134.72858"
       gradientUnits="userSpaceOnUse" /></defs><g
     id="layer1"
     transform="translate(0,-0.7380815)"><path
       id="path1"
       style="color:#000000;fill:url(#linearGradient4);stroke-width:0.999999;-inkscape-stroke:none"
       d="M 0 0.7380815 L 0 134.72835 L 2.9502075 134.72835 L 2.9502075 37.54772 L 132.51646 37.54772 L 132.51646 134.72835 L 135.46666 134.72835 L 135.46666 0.7380815 L 0 0.7380815 z M 2.9502075 3.688289 L 132.51646 3.688289 L 132.51646 34.594412 L 2.9502075 34.594412 L 2.9502075 3.688289 z M 101.63462 8.3598383 L 101.63462 13.151277 L 116.01049 13.151277 L 116.01049 8.3598383 L 101.63462 8.3598383 z M 100.43573 14.349137 A 3.5940967 3.5940967 0 0 0 96.842149 17.943749 L 96.842149 25.132458 L 101.63462 25.132458 L 101.63462 29.923896 L 116.01049 29.923896 L 116.01049 25.132458 L 120.80296 25.132458 L 120.80296 17.943749 A 3.5940967 3.5940967 0 0 0 117.20835 14.349137 L 100.43573 14.349137 z M 117.20835 16.74589 A 1.1980323 1.1980323 0 0 1 118.40621 17.943749 A 1.1980323 1.1980323 0 0 1 117.20835 19.141609 A 1.1980323 1.1980323 0 0 1 116.01049 17.943749 A 1.1980323 1.1980323 0 0 1 117.20835 16.74589 z M 104.03034 21.537845 L 113.61477 21.537845 L 113.61477 27.528177 L 104.03034 27.528177 L 104.03034 21.537845 z M 10.966772 48.204951 L 10.966772 49.263801 L 124.49989 49.263801 L 124.49989 48.204951 L 10.966772 48.204951 z M 10.966772 63.40609 L 10.966772 64.46494 L 124.49989 64.46494 L 124.49989 63.40609 L 10.966772 63.40609 z M 10.966772 78.609296 L 10.966772 79.668146 L 124.49989 79.668146 L 124.49989 78.609296 L 10.966772 78.609296 z M 10.966772 93.812502 L 10.966772 94.871352 L 124.49989 94.871352 L 124.49989 93.812502 L 10.966772 93.812502 z M 10.966772 109.01571 L 10.966772 110.07404 L 124.49989 110.07404 L 124.49989 109.01571 L 10.966772 109.01571 z M 10.966772 124.21685 L 10.966772 125.27518 L 124.49989 125.27518 L 124.49989 124.21685 L 10.966772 124.21685 z " /></g></svg>
